<svg width="18" height="17" viewBox="0 0 18 17" fill="none" xmlns="http://www.w3.org/2000/svg">
<path d="M15 2.125H3C2.58579 2.125 2.25 2.44213 2.25 2.83333V6.375C2.25 6.7662 2.58579 7.08333 3 7.08333H15C15.4142 7.08333 15.75 6.7662 15.75 6.375V2.83333C15.75 2.44213 15.4142 2.125 15 2.125Z" stroke="#B77FFF" stroke-linecap="round" stroke-linejoin="round"/>
<path d="M8.25 9.91667H3C2.58579 9.91667 2.25 10.2338 2.25 10.625V14.1667C2.25 14.5579 2.58579 14.875 3 14.875H8.25C8.66421 14.875 9 14.5579 9 14.1667V10.625C9 10.2338 8.66421 9.91667 8.25 9.91667Z" stroke="#B77FFF" stroke-linecap="round" stroke-linejoin="round"/>
<path d="M15 9.91667H12.75C12.3358 9.91667 12 10.2338 12 10.625V14.1667C12 14.5579 12.3358 14.875 12.75 14.875H15C15.4142 14.875 15.75 14.5579 15.75 14.1667V10.625C15.75 10.2338 15.4142 9.91667 15 9.91667Z" stroke="#B77FFF" stroke-linecap="round" stroke-linejoin="round"/>
</svg>
